<svg xmlns="http://www.w3.org/2000/svg" width="1226.031" height="231" viewBox="0 0 1226.031 231">
    <metadata><!--?xpacket begin="&#65279;" id="W5M0MpCehiHzreSzNTczkc9d"?-->
        <x:xmpmeta xmlns:x="adobe:ns:meta/" x:xmptk="Adobe XMP Core 5.6-c138 79.159824, 2016/09/14-01:09:01        ">
            <rdf:rdf xmlns:rdf="http://www.w3.org/1999/02/22-rdf-syntax-ns#">
                <rdf:description rdf:about=""></rdf:description>
            </rdf:rdf>
        </x:xmpmeta>
        <!--?xpacket end="w"?--></metadata>
    <defs>
        <style>
            .cls-1 {
            fill: #fff;
            fill-rule: evenodd;
            }
        </style>
    </defs>
    <path id="logo" class="cls-1" d="M1365.69,743.306H1193.47l15.31-79.171H1381Zm-117.77-61.431h-14.31l-7.13,39.978h16.94c3.21,0,5.95-.317,7.88-1.637,2.09-1.425,3.16-3.8,3.59-6.6l0.54-3.328a30.443,30.443,0,0,0,.58-4.594c0-2.9-1.39-4.489-5.25-5.122,3.7-.529,6.01-2.06,6.81-6.126l0.43-2.166a28.1,28.1,0,0,0,.43-4.646C1258.43,682.51,1255.43,681.875,1247.92,681.875Zm32.36,9.665h-3.65c-4.61,0-7.29.529-9.16,2.113-2.04,1.69-2.68,4.33-3.11,6.654l-2.09,11.829a22.723,22.723,0,0,0-.38,3.7c0,4.277,2.47,6.02,9.44,6.02h9.86l2.2-5.334h-10.78c-3.11,0-4.07-.422-4.07-2.27a14.764,14.764,0,0,1,.27-2.325l0.27-1.637h11.79c4.45,0,6.22-1.637,7.08-6.336l0.75-4.172a12.893,12.893,0,0,0,.21-2.325C1288.91,693.018,1285.91,691.54,1280.28,691.54Zm26.79-8.5h-6.65l-1.61,8.872h-4.02l-0.96,5.334h4.02l-2.15,12.041a40.732,40.732,0,0,0-.86,6.389c0,4.6,3.01,6.179,9.01,6.179h3.91l2.31-5.334h-3.65c-3.48,0-4.82-.053-4.82-2.112a33.7,33.7,0,0,1,.75-5.122l2.14-12.041h8.47l1.02-5.334h-8.52Zm28.18,8.872h-13.94l0.91,5.334H1333c3.06,0,3.97.528,3.97,2.112a26.088,26.088,0,0,1-.54,3.591V703h-8.04a26.527,26.527,0,0,0-6.17.475c-2.62.687-3.8,2.377-4.61,6.39l-0.37,1.849a24.827,24.827,0,0,0-.64,4.964c0,4.171,3.37,5.175,6.86,5.175h16.08l3.43-19.329a39.958,39.958,0,0,0,.7-5.175C1343.67,693.547,1341.31,691.91,1335.25,691.91Zm-9.92,24.609c-1.39,0-1.98-.369-1.98-1.214,0-.476.21-1.848,0.48-3.538l0.16-1.057c0.33-2.007.97-2.64,3.11-2.64h8.42l-1.5,8.449h-8.69Zm-43.87-13.307a1.974,1.974,0,0,1-2.31,1.953h-9.11l0.86-4.858c0.59-3.169,1.77-3.486,4.23-3.486h3.81c2.47,0,3.27.317,3.27,1.69a5.67,5.67,0,0,1-.16,1.268Zm-30.97-8.714c-0.53,3.062-1.5,3.8-5.57,3.8h-7.08l1.93-10.772h6.49c3.8,0,4.93.211,4.93,2.323a16.035,16.035,0,0,1-.32,2.429Zm-1.44,10.931a25.708,25.708,0,0,1-.49,3.38l-0.43,2.535c-0.59,3.379-1.34,4.859-5.62,4.859h-7.83l2.25-12.834h7.88C1247.6,703.369,1249.05,703.475,1249.05,705.429Zm-109.37,36.265-2.92,6.36h-84.42c14.25-13.8,30.7-31.561,41.79-45.6h17.66a411.876,411.876,0,0,1-31.31,34.8H1137c-4.62-7.561-9.5-15.481-13.64-23.041h14.38c6.82,11.28,16.93,26.041,24.48,37.8h-16.57C1143.83,748.654,1141.76,745.174,1139.68,741.694Zm-125.46-18.961h13.03a245.324,245.324,0,0,1-14.01,30.241h-14.5A148.249,148.249,0,0,0,1014.22,722.733Zm-59.7,30.121c-2.68-8.4-5.6-18.48-8.649-30.241h13.035c1.949,7.2,5.116,17.281,9.745,30.241H954.525Zm40.931-36.6-6.091,42.841h47.025l-1.59,10.08H987.9l-5.847,41.4H968.047l5.969-41.4H929.675l1.584-10.08h44.219l6.212-42.841H942.709l1.462-10.08h93.919l-1.46,10.08H995.456Zm-77.23,17.281h-9.137a133.861,133.861,0,0,1-18.394,45.24,212.6,212.6,0,0,0,18.516,31.68H893.619a187.608,187.608,0,0,1-10.72-20.28,187.048,187.048,0,0,1-17.054,20.28H848.912c11.085-9.48,19.734-20.76,28.262-33-2.924-7.2-5.726-14.88-8.04-22.56-1.218,2.16-2.315,4.2-3.533,6.12H854.029c-2.193,16.44-4.63,33-7.188,49.44H825.889l-3.167-10.56h12.912c2.437-13.92,4.629-29.16,6.457-43.32,0.243-1.44.365-1.8-.975-1.8H830.274a221.828,221.828,0,0,1-18.759,55.68h-13.4c8.4-18.24,16.445-36.96,20.221-58.92,1.219-7.32,2.315-14.88,2.8-22.081H810.906l1.461-10.56h21.318c-1.462-5.4-2.923-11.04-3.9-16.44h12.547c1.1,5.04,2.68,10.8,4.507,16.44h16.933l-1.462,10.56H833.32c-0.244,4.561-.853,9.841-1.462,15H850.13c4.873,0,5.726,1.92,5.117,6.96a34.092,34.092,0,0,1-.488,3.48c11.329-17.52,20.831-36.721,26.434-52.441H895.2c-2.192,6-5.238,12.96-8.649,20.04h33.378Zm-37.276,0c-2.68,5.16-5.482,10.2-8.162,15.12H880.1a164.776,164.776,0,0,0,4.751,16.08,111.106,111.106,0,0,0,11.085-31.2H880.95Zm-88.194,24.36h-23.51l-7.431,52.68h-14.5l7.431-52.68H724.783c-5.847,22.56-15.349,39-28.87,52.68H677.275c18.394-16.56,27.652-33.24,33.012-52.68H687.02l1.705-11.52h24.364a281.362,281.362,0,0,0,3.776-28.2H698.593l1.705-11.4H794.34l-1.705,11.4H774.849l-4.02,28.2h23.633Zm-62-39.721c-0.853,9.24-2.193,19.681-3.533,28.2h29.236l4.02-28.2H730.752Zm-76.377,81.121H669.48l-4.386,11.16H638.782c3.655-20.76,6.822-39,9.745-54.84h-19.49l-9.745,54.84h-13.4l9.745-54.84H598.948l2.071-10.2h16.445l4.629-25.681,11.817,8.64-3.046,17.041h19.491c1.7-9.72,3.289-18.481,4.751-25.921,0.609-3.12-.731-3.48-3.533-3.48h-44.95l-2.437-10.56h58.107c7.43,0,8.649,2.16,7.552,8.16C664.851,741.094,659.369,772.054,654.375,799.294Zm-74.43-96.841h12.669l5.116,25.2H584.452Zm4.629,82.8c4.994-3.6,10.72-8.16,16.08-12.36l-2.924,15.6a301.966,301.966,0,0,1-31.55,21.48l12.3-65.4H565.936l1.827-10.56h26.069Zm-34.107-41.76h-18.76c3.167,5.64,13.644,10.44,20.1,12l-3.167,10.56a44.388,44.388,0,0,1-15.471-6.48l-2.8,12.84h5.969c4.264,0,7.187.72,6.335,5.76-1.462,9.12-3.655,21.6-5.726,32.28H503.933l-2.193-9.72h23.633c1.218-5.28,2.558-11.52,3.411-16.56,0.365-1.68,0-2.28-1.706-2.28h-41.9l3.777-19.56a57.6,57.6,0,0,1-11.695,3.72l2.559-12c6.09-1.44,15.836-5.88,20.343-10.56H481.884l1.949-9.36h22.78a53.621,53.621,0,0,0,2.558-5.521H484.808l1.949-9.6h8.4l-2.923-14.4h12.79c0.853,4.8,1.828,9.24,2.924,14.4H512.1a87.262,87.262,0,0,0,2.436-16.44h12.913a95.7,95.7,0,0,1-2.315,16.44H530a114.808,114.808,0,0,0,5.725-14.4h12.791a128.562,128.562,0,0,1-6.213,14.4h9.015l-2.315,9.6H522.327c-0.731,1.8-1.461,3.72-2.314,5.521h32.768Zm-55.061,17.88,5.725,3.84-1.461,7.2h18.272l1.949-8.76c0.365-1.68,0-2.28-1.7-2.28h-22.78Zm23.632-17.88h-4.507a60.877,60.877,0,0,1-8.892,8.76h19.125A37.564,37.564,0,0,1,519.038,743.494Zm-52.259,66.96H454.354l7.187-37.56h-8.283c-2.8,13.8-6.091,26.64-9.258,37.56H431.818a390.9,390.9,0,0,0,9.745-38.28c4.751-23.16,8.649-45.721,12.06-66.481h23.145c6.213,0,8.649,1.08,7.675,6.96Zm-11.694-47.4h8.283l3.655-19.2h-8.405C457.521,750.214,456.3,756.814,455.085,763.054ZM469.7,715.893h-6.091l-3.167,18.241h8.405l3.045-15.961C472.261,716.253,471.53,715.893,469.7,715.893Zm-89.936,50.444c-4.914,1.319-7.064,2.142-11.835,3.034-3.021.569-5.767-.463-5.448-4.4,1.291-15.873.929-28.954-1.5-43.24-0.563-3.318.591-5.031,3.824-3.957,4.867,1.623,7.963,2.677,13.613,4.964,2.867,1.166,6.135,3.038,7.011,8.471a127.046,127.046,0,0,1,1.182,26.354C386.327,761.47,386.2,764.6,379.767,766.337ZM361.028,711.16c-10.024-3.16-23.113-6.786-33.637-8.415-2.234-.348-5.429-2.73-5.975-5.559a222.623,222.623,0,0,0-6.4-26.365c-0.99-2.753-.165-4.736,2.221-4.181a152.644,152.644,0,0,1,32.167,11.121c2.092,1.04,5.768,4.4,6.577,6.593,2.413,6.551,4.989,12.16,7.792,23.715C364.256,710.038,363.173,711.832,361.028,711.16Zm-22.472-48.709a109.212,109.212,0,0,0-38.578-1.69c-11.462,1.626-13.935,1.28-28.905-3.085-8.5-2.485-16.687-4.479-27.995-6.819-13.739-2.845-14.168-10.2,2.883-14.18q1.531-.357,3.114-0.642c-0.135.018-.269,0.032-0.4,0.051,43.88-7.942,76.233,8.963,93.963,22.506a50.173,50.173,0,0,1,4.787,3.848C348.56,664.4,345.489,663.965,338.556,662.451ZM251.519,681.11c-37.7,29.258-60.756,68.751-67.7,101.556,9.172,8.108,22.4,14.569,43.09,20.219,9.715,2.655,15.679,7.472,11.876,17.256-6.134,15.812-21.594,39.3-47.689,13.075q-1-1.01-1.986-2.056c-42.608-41.517-45.925-111.884-6.667-155.648,9.18-10.252,29.65-12.473,44.525-11.167C247.367,666.147,260.588,674.073,251.519,681.11Zm5.639,155.944a206.485,206.485,0,0,0,70.482-7.391c8.738-2.055,8.657,1.113,5.365,6.953a134.385,134.385,0,0,1-8.033,12.691,20.569,20.569,0,0,1-7.344,5.9,117.921,117.921,0,0,1-55.047,9.544c-5.712-.446-7.814-2.988-8.755-5.416a118.513,118.513,0,0,1-4.519-15.661C247.9,837.266,250.488,836.622,257.158,837.054Zm7.512-31.316c-7.014-.889-10.586-4.839-10.676-10.824-0.837-17.393-1.842-36.136-1.218-63.438,0.163-6.884,3.534-9.958,8.8-10.1a600.524,600.524,0,0,1,64.788,2.246c6.543,0.532,11.921,2.326,12.845,9.3a221.136,221.136,0,0,1-2.615,56.892c-0.957,5.445-3.721,9.809-10.035,11.117C311.247,803.357,292.234,806.265,264.67,805.738Zm88.255-10.4c0.65-2.427.46-5.088,4.715-6.346a107.187,107.187,0,0,0,20.458-7.979c1.843-.909,4.317.184,3.276,3.473a119.919,119.919,0,0,1-4.732,12.458c-2.007,4.474-3.824,6.248-7.579,8.694a104.394,104.394,0,0,1-19.044,9.728c-3.085,1.277-3.091-.61-2.4-2.627C350.151,805.431,351.55,800.5,352.925,795.338Zm166.357,0.716H477.255l-1.7-9.36h45.925Zm619.668-35.4c7.56,0,8.77,2.4,7.8,9.84l-5.36,39.96h-87.1l7.43-49.8h77.23Zm-10.23,39,3.53-26.28c0.25-1.2-.12-1.92-1.46-1.92H1073.9l-3.65,28.2h58.47Z" transform="translate(-154.969 -634.062)"></path>
</svg>